<svg xmlns="http://www.w3.org/2000/svg" viewBox="0.0000 0.0000 3.4290 2.0320" width="100%" height="100%" preserveAspectRatio="xMidYMid meet">
<g style="fill:#000000; fill-opacity:1.000000;stroke:#000000; stroke-opacity:1.000000;
stroke-linecap:round; stroke-linejoin:round;"
 transform="translate(0 0) scale(1 1)">
<path style="fill:#000000; fill-opacity:1.000000; stroke:none;fill-rule:evenodd;"
d="M 2.915000,1.425000
2.115000,1.425000
2.115000,0.625000
2.915000,0.625000
Z" />
<path style="fill:#000000; fill-opacity:1.000000; stroke:none;fill-rule:evenodd;"
d="M 1.415000,1.425000
0.615000,1.425000
0.615000,0.625000
1.415000,0.625000
Z" />
</g>
<g style="fill:none;
stroke:#000000; stroke-width:0.150000; stroke-opacity:1;
stroke-linecap:round; stroke-linejoin:round;">
<path d="M1.985000 1.355000
L1.975000 1.355000
" />
<path d="M1.975000 1.355000
L1.645000 1.025000
" />
<path d="M1.985000 0.675000
L1.985000 0.685000
" />
<path d="M1.985000 0.685000
L1.645000 1.025000
" />
<path d="M1.985000 0.675000
L1.985000 1.355000
" />
<path d="M2.005000 0.275000
L3.155000 0.275000
" />
<path d="M2.005000 1.775000
L3.155000 1.775000
" />
<path d="M3.155000 0.275000
L3.155000 1.755000
" />
<path d="M1.625000 1.775000
L0.575000 1.775000
" />
<path d="M0.275000 1.375000
L0.275000 1.475000
" />
<path d="M0.275000 1.475000
L0.575000 1.775000
" />
<path d="M0.275000 0.675000
L0.275000 1.375000
" />
<path d="M0.275000 0.675000
L0.275000 0.575000
" />
<path d="M0.275000 0.575000
L0.575000 0.275000
" />
<path d="M1.625000 0.275000
L0.575000 0.275000
" />
<path d="M1.985000 1.025000
L1.645000 1.025000
" />
</g>
<g style="fill:none;
stroke:#000000; stroke-width:0.060000; stroke-opacity:1;
stroke-linecap:round; stroke-linejoin:round;">
<circle cx="0.965000" cy="1.425000" r="0.030000" />
</g>
<g style="fill:none;
stroke:#000000; stroke-width:0.050000; stroke-opacity:1;
stroke-linecap:round; stroke-linejoin:round;">
<path d="M0.025000 0.025000
L3.405000 0.025000
" />
<path d="M3.405000 0.025000
L3.405000 2.025000
" />
<path d="M3.405000 2.025000
L0.025000 2.025000
" />
<path d="M0.025000 2.025000
L0.025000 0.025000
" />
</g>
</svg>
