<svg xmlns="http://www.w3.org/2000/svg" viewBox="0.0000 0.0000 3.2258 2.9210" width="100%" height="100%" preserveAspectRatio="xMidYMid meet">
<g style="fill:#000000; fill-opacity:1.000000;stroke:#000000; stroke-opacity:1.000000;
stroke-linecap:round; stroke-linejoin:round;"
 transform="translate(0 0) scale(1 1)">
<path style="fill:#000000; fill-opacity:1.000000; stroke:none;fill-rule:evenodd;"
d="M 0.275000,0.817500
0.281661,0.784015
0.300628,0.755628
0.329015,0.736661
0.362500,0.730000
1.212500,0.730000
1.245985,0.736661
1.274372,0.755628
1.293339,0.784015
1.300000,0.817500
1.300000,0.992500
1.293339,1.025985
1.274372,1.054372
1.245985,1.073339
1.212500,1.080000
0.362500,1.080000
0.329015,1.073339
0.300628,1.054372
0.281661,1.025985
0.275000,0.992500
Z" />
<path style="fill:#000000; fill-opacity:1.000000; stroke:none;fill-rule:evenodd;"
d="M 0.275000,1.467500
0.281661,1.434015
0.300628,1.405628
0.329015,1.386661
0.362500,1.380000
1.212500,1.380000
1.245985,1.386661
1.274372,1.405628
1.293339,1.434015
1.300000,1.467500
1.300000,1.642500
1.293339,1.675985
1.274372,1.704372
1.245985,1.723339
1.212500,1.730000
0.362500,1.730000
0.329015,1.723339
0.300628,1.704372
0.281661,1.675985
0.275000,1.642500
Z" />
<path style="fill:#000000; fill-opacity:1.000000; stroke:none;fill-rule:evenodd;"
d="M 0.275000,2.117500
0.281661,2.084015
0.300628,2.055628
0.329015,2.036661
0.362500,2.030000
1.212500,2.030000
1.245985,2.036661
1.274372,2.055628
1.293339,2.084015
1.300000,2.117500
1.300000,2.292500
1.293339,2.325985
1.274372,2.354372
1.245985,2.373339
1.212500,2.380000
0.362500,2.380000
0.329015,2.373339
0.300628,2.354372
0.281661,2.325985
0.275000,2.292500
Z" />
<path style="fill:#000000; fill-opacity:1.000000; stroke:none;fill-rule:evenodd;"
d="M 1.950000,2.117500
1.956661,2.084015
1.975628,2.055628
2.004015,2.036661
2.037500,2.030000
2.887500,2.030000
2.920985,2.036661
2.949372,2.055628
2.968339,2.084015
2.975000,2.117500
2.975000,2.292500
2.968339,2.325985
2.949372,2.354372
2.920985,2.373339
2.887500,2.380000
2.037500,2.380000
2.004015,2.373339
1.975628,2.354372
1.956661,2.325985
1.950000,2.292500
Z" />
<path style="fill:#000000; fill-opacity:1.000000; stroke:none;fill-rule:evenodd;"
d="M 1.950000,1.467500
1.956661,1.434015
1.975628,1.405628
2.004015,1.386661
2.037500,1.380000
2.887500,1.380000
2.920985,1.386661
2.949372,1.405628
2.968339,1.434015
2.975000,1.467500
2.975000,1.642500
2.968339,1.675985
2.949372,1.704372
2.920985,1.723339
2.887500,1.730000
2.037500,1.730000
2.004015,1.723339
1.975628,1.704372
1.956661,1.675985
1.950000,1.642500
Z" />
<path style="fill:#000000; fill-opacity:1.000000; stroke:none;fill-rule:evenodd;"
d="M 1.950000,0.817500
1.956661,0.784015
1.975628,0.755628
2.004015,0.736661
2.037500,0.730000
2.887500,0.730000
2.920985,0.736661
2.949372,0.755628
2.968339,0.784015
2.975000,0.817500
2.975000,0.992500
2.968339,1.025985
2.949372,1.054372
2.920985,1.073339
2.887500,1.080000
2.037500,1.080000
2.004015,1.073339
1.975628,1.054372
1.956661,1.025985
1.950000,0.992500
Z" />
</g>
<g style="fill:none;
stroke:#000000; stroke-width:0.120000; stroke-opacity:1;
stroke-linecap:round; stroke-linejoin:round;">
<path d="M0.890000 0.445000
L2.360000 0.445000
" />
<path d="M0.890000 0.470000
L0.890000 0.445000
" />
<path d="M0.890000 2.665000
L0.890000 2.640000
" />
<path d="M2.360000 0.445000
L2.360000 0.470000
" />
<path d="M2.360000 2.640000
L2.360000 2.665000
" />
<path d="M2.360000 2.665000
L0.890000 2.665000
" />
<path style="fill:none;
stroke:#000000; stroke-width:0.120000; stroke-opacity:1;
stroke-linecap:round; stroke-linejoin:round;fill:none"
d="M 0.445000,0.465000
0.305000,0.275000
0.585000,0.275000
Z" />
<path style="fill:#000000; fill-opacity:1.000000; stroke:none;fill-rule:evenodd;"
d="M 0.445000,0.465000
0.305000,0.275000
0.585000,0.275000
Z" />
<path style="fill:none;
stroke:#000000; stroke-width:0.100000; stroke-opacity:1;
stroke-linecap:round; stroke-linejoin:round;fill:none"
d="M 1.312500,0.555000
2.250000,0.555000
2.250000,2.555000
1.000000,2.555000
1.000000,0.867500
Z" />
</g>
<g style="fill:none;
stroke:#000000; stroke-width:0.050000; stroke-opacity:1;
stroke-linecap:round; stroke-linejoin:round;">
<path d="M0.025000 0.025000
L3.225000 0.025000
" />
<path d="M3.225000 0.025000
L3.225000 2.915000
" />
<path d="M3.225000 2.915000
L0.025000 2.915000
" />
<path d="M0.025000 2.915000
L0.025000 0.025000
" />
</g>
</svg>
