#VRML V2.0 utf8
# Provisional family envelope: TI DBV0005A SOT-23-5 maxima 3.05 x 1.75 x 1.45 mm. No exact solderability or physical-fit verdict.
# IC_SOT-23-5.wrl; display envelope only; no fit, clearance, or qualification claim.
Shape {
 appearance Appearance { material Material { diffuseColor 0.34 0.47 0.6 } }
 geometry IndexedFaceSet {
  ccw TRUE
  solid FALSE
  coord Coordinate { point [ -1.525 -0.875 0, 1.525 -0.875 0, 1.525 0.875 0, -1.525 0.875 0, -1.525 -0.875 1.45, 1.525 -0.875 1.45, 1.525 0.875 1.45, -1.525 0.875 1.45 ] }
  coordIndex [0,3,2,1,-1,4,5,6,7,-1,0,1,5,4,-1,1,2,6,5,-1,2,3,7,6,-1,3,0,4,7,-1]
 }
}
