#VRML V2.0 utf8
# Provisional narrow-SOIC-16 family envelope: ALFA RPAR AS3340D drawing gives 10.0 x 4.0 mm nominal planform; TI LM13700 gives 9.90 x 3.91 mm. Uses the largest retained planform. 1.75 mm height is a family estimate from the retained D0014A outline, not an exact D16 limit. Exact height and physical fit remain OPEN.
# IC_SOIC-16_3.9x9.9.wrl; display envelope only; no fit, clearance, or qualification claim.
Shape {
 appearance Appearance { material Material { diffuseColor 0.34 0.47 0.6 } }
 geometry IndexedFaceSet {
  ccw TRUE
  solid FALSE
  coord Coordinate { point [ -1.968504 -0.787402 0, 1.968504 -0.787402 0, 1.968504 0.787402 0, -1.968504 0.787402 0, -1.968504 -0.787402 0.688976, 1.968504 -0.787402 0.688976, 1.968504 0.787402 0.688976, -1.968504 0.787402 0.688976 ] }
  coordIndex [0,3,2,1,-1,4,5,6,7,-1,0,1,5,4,-1,1,2,6,5,-1,2,3,7,6,-1,3,0,4,7,-1]
 }
}
