#VRML V2.0 utf8
# Provisional family envelope: TI D0014A SOIC-14 package-outline maxima 8.75 x 4.0 x 1.75 mm. Other records using this footprint retain their own package checks; no physical-fit verdict.
# IC_SOIC-14_3.9x8.7.wrl; display envelope only; no fit, clearance, or qualification claim.
Shape {
 appearance Appearance { material Material { diffuseColor 0.34 0.47 0.6 } }
 geometry IndexedFaceSet {
  ccw TRUE
  solid FALSE
  coord Coordinate { point [ -1.722441 -0.787402 0, 1.722441 -0.787402 0, 1.722441 0.787402 0, -1.722441 0.787402 0, -1.722441 -0.787402 0.688976, 1.722441 -0.787402 0.688976, 1.722441 0.787402 0.688976, -1.722441 0.787402 0.688976 ] }
  coordIndex [0,3,2,1,-1,4,5,6,7,-1,0,1,5,4,-1,1,2,6,5,-1,2,3,7,6,-1,3,0,4,7,-1]
 }
}
