#VRML V2.0 utf8
# Provisional family envelope: TI D0008A SOIC-8 package-outline maxima 5.00 x 3.98 x 1.75 mm. No land-pattern or physical-fit verdict.
# IC_SOIC-8_3.9x4.9.wrl; display envelope only; no fit, clearance, or qualification claim.
Shape {
 appearance Appearance { material Material { diffuseColor 0.34 0.47 0.6 } }
 geometry IndexedFaceSet {
  ccw TRUE
  solid FALSE
  coord Coordinate { point [ -0.984252 -0.783465 0, 0.984252 -0.783465 0, 0.984252 0.783465 0, -0.984252 0.783465 0, -0.984252 -0.783465 0.688976, 0.984252 -0.783465 0.688976, 0.984252 0.783465 0.688976, -0.984252 0.783465 0.688976 ] }
  coordIndex [0,3,2,1,-1,4,5,6,7,-1,0,1,5,4,-1,1,2,6,5,-1,2,3,7,6,-1,3,0,4,7,-1]
 }
}
