#VRML V2.0 utf8
# Manufacturer example land pattern; provisional body-only display envelope, no physical-fit qualification; body dimensions exclude mold/interlead flash (drawing notes3/4)
# TI_DCT0008A; display envelope only; no fit, clearance, or qualification claim.
Shape {
 appearance Appearance { material Material { diffuseColor 0.34 0.47 0.6 } }
 geometry IndexedFaceSet {
  ccw TRUE
  solid FALSE
  coord Coordinate { point [ -0.610236 -0.610236 0, 0.610236 -0.610236 0, 0.610236 0.610236 0, -0.610236 0.610236 0, -0.610236 -0.610236 0.511811, 0.610236 -0.610236 0.511811, 0.610236 0.610236 0.511811, -0.610236 0.610236 0.511811 ] }
  coordIndex [0,3,2,1,-1,4,5,6,7,-1,0,1,5,4,-1,1,2,6,5,-1,2,3,7,6,-1,3,0,4,7,-1]
 }
}
