#VRML V2.0 utf8
# Provisional family body envelope from retained PJ398SM drawing callouts 9 x 10.5 x 9 mm; no panel datum or exact WQP body claim.
Shape {
 appearance Appearance { material Material { diffuseColor 0.22 0.22 0.22 } }
 geometry IndexedFaceSet {
  ccw TRUE
  solid FALSE
  coord Coordinate { point [ -1.771654 -2.066929 0, 1.771654 -2.066929 0, 1.771654 2.066929 0, -1.771654 2.066929 0, -1.771654 -2.066929 3.543307, 1.771654 -2.066929 3.543307, 1.771654 2.066929 3.543307, -1.771654 2.066929 3.543307 ] }
  coordIndex [0,3,2,1,-1,4,5,6,7,-1,0,1,5,4,-1,1,2,6,5,-1,2,3,7,6,-1,3,0,4,7,-1]
 }
}
