#VRML V2.0 utf8
# Provisional maximum body display from nominal plus tolerance; manufacturer DensityB reflow land recommendation; no lead, seating, assembly or installed-fit qualification. Rectangular pad corner shape is a project choice.
# KEMET_C0603_DensityB; display envelope only; no fit, clearance, or qualification claim.
Shape {
 appearance Appearance { material Material { diffuseColor 0.34 0.47 0.6 } }
 geometry IndexedFaceSet {
  ccw TRUE
  solid FALSE
  coord Coordinate { point [ -0.344488 -0.187008 0, 0.344488 -0.187008 0, 0.344488 0.187008 0, -0.344488 0.187008 0, -0.344488 -0.187008 0.374016, 0.344488 -0.187008 0.374016, 0.344488 0.187008 0.374016, -0.344488 0.187008 0.374016 ] }
  coordIndex [0,3,2,1,-1,4,5,6,7,-1,0,1,5,4,-1,1,2,6,5,-1,2,3,7,6,-1,3,0,4,7,-1]
 }
}
