#VRML V2.0 utf8
# Package-only cuboid for Kingbright APG1005SEC/E-T, exact 1.0 x 0.5 x 0.2 mm dimensions from DSAM9600 V.10A page 1; no lens or seating qualification.
Shape {
 appearance Appearance { material Material { diffuseColor 0.75 0.15 0.12 } }
 geometry IndexedFaceSet {
  ccw TRUE
  solid FALSE
  coord Coordinate { point [ -0.19685 -0.098425 0, 0.19685 -0.098425 0, 0.19685 0.098425 0, -0.19685 0.098425 0, -0.19685 -0.098425 0.07874, 0.19685 -0.098425 0.07874, 0.19685 0.098425 0.07874, -0.19685 0.098425 0.07874 ] }
  coordIndex [0,3,2,1,-1,4,5,6,7,-1,0,1,5,4,-1,1,2,6,5,-1,2,3,7,6,-1,3,0,4,7,-1]
 }
}
