#VRML V2.0 utf8
# Coarse body envelope from manufacturer drawing; shaft, mounting and installed fit not represented.
Shape {
 appearance Appearance { material Material { diffuseColor 0.12 0.12 0.12 } }
 geometry IndexedFaceSet {
  ccw TRUE
  solid FALSE
  coord Coordinate { point [ -0.196850 -0.196850 -0.133858, 0.196850 -0.196850 -0.133858, 0.196850 0.196850 -0.133858, -0.196850 0.196850 -0.133858, -0.196850 -0.196850 0.133858, 0.196850 -0.196850 0.133858, 0.196850 0.196850 0.133858, -0.196850 0.196850 0.133858 ] }
  coordIndex [0,3,2,1,-1,4,5,6,7,-1,0,1,5,4,-1,1,2,6,5,-1,2,3,7,6,-1,3,0,4,7,-1]
 }
}
