#VRML V2.0 utf8
# Conservative KEEP OUT volumes, not actual solids. Includes uncertain support contour and tails.
Shape { appearance Appearance { material Material { diffuseColor 0.4 0.25 0.15 transparency 0.35 } } geometry IndexedFaceSet { solid FALSE coord Coordinate { point [ -3.582677165 -3.149606299 -1.574803150, 3.582677165 -3.149606299 -1.574803150, 3.582677165 4.133858268 -1.574803150, -3.582677165 4.133858268 -1.574803150, -3.582677165 -3.149606299 2.952755906, 3.582677165 -3.149606299 2.952755906, 3.582677165 4.133858268 2.952755906, -3.582677165 4.133858268 2.952755906 ] } coordIndex [ 0,3,2,1,-1,4,5,6,7,-1,0,1,5,4,-1,1,2,6,5,-1,2,3,7,6,-1,3,0,4,7,-1 ] } }
Shape { appearance Appearance { material Material { diffuseColor 0.65 0.45 0.15 transparency 0.35 } } geometry IndexedFaceSet { solid FALSE coord Coordinate { point [ -2.145669291 -3.779527559 -1.574803150, 2.145669291 -3.779527559 -1.574803150, 2.145669291 3.779527559 -1.574803150, -2.145669291 3.779527559 -1.574803150, -2.145669291 -3.779527559 0.000000000, 2.145669291 -3.779527559 0.000000000, 2.145669291 3.779527559 0.000000000, -2.145669291 3.779527559 0.000000000 ] } coordIndex [ 0,3,2,1,-1,4,5,6,7,-1,0,1,5,4,-1,1,2,6,5,-1,2,3,7,6,-1,3,0,4,7,-1 ] } }
Shape { appearance Appearance { material Material { diffuseColor 0.65 0.65 0.65 transparency 0.35 } } geometry IndexedFaceSet { solid FALSE coord Coordinate { point [ -1.771653543 -1.771653543 2.952755906, 1.771653543 -1.771653543 2.952755906, 1.771653543 1.771653543 2.952755906, -1.771653543 1.771653543 2.952755906, -1.771653543 -1.771653543 5.708661417, 1.771653543 -1.771653543 5.708661417, 1.771653543 1.771653543 5.708661417, -1.771653543 1.771653543 5.708661417 ] } coordIndex [ 0,3,2,1,-1,4,5,6,7,-1,0,1,5,4,-1,1,2,6,5,-1,2,3,7,6,-1,3,0,4,7,-1 ] } }
Shape { appearance Appearance { material Material { diffuseColor 0.8 0.8 0.8 transparency 0.35 } } geometry IndexedFaceSet { solid FALSE coord Coordinate { point [ -1.181102362 -1.181102362 5.708661417, 1.181102362 -1.181102362 5.708661417, 1.181102362 1.181102362 5.708661417, -1.181102362 1.181102362 5.708661417, -1.181102362 -1.181102362 9.055118110, 1.181102362 -1.181102362 9.055118110, 1.181102362 1.181102362 9.055118110, -1.181102362 1.181102362 9.055118110 ] } coordIndex [ 0,3,2,1,-1,4,5,6,7,-1,0,1,5,4,-1,1,2,6,5,-1,2,3,7,6,-1,3,0,4,7,-1 ] } }
