#VRML V2.0 utf8
# Provisional 2M family body envelope from retained drawing dimensions; third axis is a display bound only, not a mounted-height or fit claim.
Shape {
 appearance Appearance { material Material { diffuseColor 0.65 0.65 0.65 } }
 geometry IndexedFaceSet {
  ccw TRUE
  solid FALSE
  coord Coordinate { point [ -1.600394 -1 0, 1.600394 -1 0, 1.600394 1 0, -1.600394 1 0, -1.600394 -1 2, 1.600394 -1 2, 1.600394 1 2, -1.600394 1 2 ] }
  coordIndex [0,3,2,1,-1,4,5,6,7,-1,0,1,5,4,-1,1,2,6,5,-1,2,3,7,6,-1,3,0,4,7,-1]
 }
}
