#VRML V2.0 utf8
# Provisional family envelope: Nexperia SOD123 outline maxima 2.80 x 1.70 x 1.30 mm. No placement, diode-transfer, or physical-fit verdict.
# D_SOD-123.wrl; display envelope only; no fit, clearance, or qualification claim.
Shape {
 appearance Appearance { material Material { diffuseColor 0.34 0.47 0.6 } }
 geometry IndexedFaceSet {
  ccw TRUE
  solid FALSE
  coord Coordinate { point [ -0.551181 -0.334646 0, 0.551181 -0.334646 0, 0.551181 0.334646 0, -0.551181 0.334646 0, -0.551181 -0.334646 0.511811, 0.551181 -0.334646 0.511811, 0.551181 0.334646 0.511811, -0.551181 0.334646 0.511811 ] }
  coordIndex [0,3,2,1,-1,4,5,6,7,-1,0,1,5,4,-1,1,2,6,5,-1,2,3,7,6,-1,3,0,4,7,-1]
 }
}
