#VRML V2.0 utf8
# Planform-only family display from retained DIP-8 footprint F.Fab extents 10.16 x 6.35 mm. The 0.1 mm plate is not a package-height claim; NOISE2 body height and optical/board clearance remain OPEN.
# IC_DIP-8_W7.62mm.wrl; display envelope only; no fit, clearance, or qualification claim.
Shape {
 appearance Appearance { material Material { diffuseColor 0.34 0.47 0.6 } }
 geometry IndexedFaceSet {
  ccw TRUE
  solid FALSE
  coord Coordinate { point [ -5.08 -3.175 0, 5.08 -3.175 0, 5.08 3.175 0, -5.08 3.175 0, -5.08 -3.175 0.1, 5.08 -3.175 0.1, 5.08 3.175 0.1, -5.08 3.175 0.1 ] }
  coordIndex [0,3,2,1,-1,4,5,6,7,-1,0,1,5,4,-1,1,2,6,5,-1,2,3,7,6,-1,3,0,4,7,-1]
 }
}
