#VRML V2.0 utf8
# Provisional family envelope: Nexperia MMBT3904 SOT23 package-outline maxima 3.0 x 1.4 x 1.1 mm, reused only as a common-family display envelope. No exact-part fit verdict.
# IC_SOT-23.wrl; display envelope only; no fit, clearance, or qualification claim.
Shape {
 appearance Appearance { material Material { diffuseColor 0.34 0.47 0.6 } }
 geometry IndexedFaceSet {
  ccw TRUE
  solid FALSE
  coord Coordinate { point [ -0.590551 -0.275591 0, 0.590551 -0.275591 0, 0.590551 0.275591 0, -0.590551 0.275591 0, -0.590551 -0.275591 0.433071, 0.590551 -0.275591 0.433071, 0.590551 0.275591 0.433071, -0.590551 0.275591 0.433071 ] }
  coordIndex [0,3,2,1,-1,4,5,6,7,-1,0,1,5,4,-1,1,2,6,5,-1,2,3,7,6,-1,3,0,4,7,-1]
 }
}
