#VRML V2.0 utf8
# Provisional family envelope: Nexperia SOT363-3 outline maxima 2.2 x 1.35 x 1.1 mm. No land-pattern or physical-fit verdict.
# IC_SOT-363_SC-70-6.wrl; display envelope only; no fit, clearance, or qualification claim.
Shape {
 appearance Appearance { material Material { diffuseColor 0.34 0.47 0.6 } }
 geometry IndexedFaceSet {
  ccw TRUE
  solid FALSE
  coord Coordinate { point [ -1.1 -0.675 0, 1.1 -0.675 0, 1.1 0.675 0, -1.1 0.675 0, -1.1 -0.675 1.1, 1.1 -0.675 1.1, 1.1 0.675 1.1, -1.1 0.675 1.1 ] }
  coordIndex [0,3,2,1,-1,4,5,6,7,-1,0,1,5,4,-1,1,2,6,5,-1,2,3,7,6,-1,3,0,4,7,-1]
 }
}
