#VRML V2.0 utf8
# Provisional family envelope: ADG5412F RU-16 outline maxima 5.10 x 4.50 x 1.20 mm. No board-fit or system protection verdict.
# IC_TSSOP-16_4.4x5.0.wrl; display envelope only; no fit, clearance, or qualification claim.
Shape {
 appearance Appearance { material Material { diffuseColor 0.34 0.47 0.6 } }
 geometry IndexedFaceSet {
  ccw TRUE
  solid FALSE
  coord Coordinate { point [ -1.003937 -0.885827 0, 1.003937 -0.885827 0, 1.003937 0.885827 0, -1.003937 0.885827 0, -1.003937 -0.885827 0.472441, 1.003937 -0.885827 0.472441, 1.003937 0.885827 0.472441, -1.003937 0.885827 0.472441 ] }
  coordIndex [0,3,2,1,-1,4,5,6,7,-1,0,1,5,4,-1,1,2,6,5,-1,2,3,7,6,-1,3,0,4,7,-1]
 }
}
