#VRML V2.0 utf8
# Provisional maximum body display from nominal plus tolerance; manufacturer Density B reflow lands. No seating, solder fillets, installed-fit or thermal qualification. Rectangular pad corners are a project choice.
# KEMET_C1206_C0G_DensityB; display envelope only; no fit, clearance, or qualification claim.
Shape {
 appearance Appearance { material Material { diffuseColor 0.34 0.47 0.6 } }
 geometry IndexedFaceSet {
  ccw TRUE
  solid FALSE
  coord Coordinate { point [ -0.669291 -0.354331 0, 0.669291 -0.354331 0, 0.669291 0.354331 0, -0.669291 0.354331 0, -0.669291 -0.354331 0.708661, 0.669291 -0.354331 0.708661, 0.669291 0.354331 0.708661, -0.669291 0.354331 0.708661 ] }
  coordIndex [0,3,2,1,-1,4,5,6,7,-1,0,1,5,4,-1,1,2,6,5,-1,2,3,7,6,-1,3,0,4,7,-1]
 }
}
