#VRML V2.0 utf8
# Package-only cuboid for Kingbright APHHS1005QWF/D, exact 1.0 x 0.5 x 0.5 mm dimensions from DSAK0125 V.10B page 1; no lens or seating qualification.
Shape {
 appearance Appearance { material Material { diffuseColor 0.8 0.78 0.5 } }
 geometry IndexedFaceSet {
  ccw TRUE
  solid FALSE
  coord Coordinate { point [ -0.19685 -0.098425 0, 0.19685 -0.098425 0, 0.19685 0.098425 0, -0.19685 0.098425 0, -0.19685 -0.098425 0.19685, 0.19685 -0.098425 0.19685, 0.19685 0.098425 0.19685, -0.19685 0.098425 0.19685 ] }
  coordIndex [0,3,2,1,-1,4,5,6,7,-1,0,1,5,4,-1,1,2,6,5,-1,2,3,7,6,-1,3,0,4,7,-1]
 }
}
